<svg id="Calque_1" data-name="Calque 1" xmlns="http://www.w3.org/2000/svg" xmlns:xlink="http://www.w3.org/1999/xlink" viewBox="0 0 1920 1080"><defs><style>.cls-1,.cls-2{fill-rule:evenodd;}.cls-1{fill:url(#linear-gradient);}.cls-2{mix-blend-mode:lighten;opacity:0.7;fill:url(#linear-gradient-2);}.cls-3{fill:#333;}.cls-4{fill:none;stroke:#594f8e;}.cls-4,.cls-5{stroke-miterlimit:10;}.cls-5{fill:#c1b36f;stroke:#ad93c1;}.cls-6{font-size:12px;font-family:MyriadPro-Regular, Myriad Pro;}.cls-7,.cls-8,.cls-9{font-size:24px;}.cls-7,.cls-8{font-family:ArialMT, Arial;}.cls-9{font-family:Arial-BoldMT, Arial;font-weight:700;}</style><linearGradient id="linear-gradient" x1="9" x2="9" y2="18" gradientUnits="userSpaceOnUse"><stop offset="0" stop-color="#009dff"/><stop offset="1" stop-color="#0075be"/></linearGradient><linearGradient id="linear-gradient-2" x1="9" y1="1" x2="9" y2="17" gradientUnits="userSpaceOnUse"><stop offset="0" stop-color="#fff"/><stop offset="1" stop-color="#cfcfcf"/></linearGradient><symbol id="Panneau_BoutonFermetureSurvolé" data-name="Panneau_BoutonFermetureSurvolé" viewBox="0 0 18 18"><path class="cls-1" d="M15,0H3A3,3,0,0,0,0,3V15a3,3,0,0,0,3,3H15a3,3,0,0,0,3-3V3A3,3,0,0,0,15,0Zm2,15a2,2,0,0,1-2,2H3a2,2,0,0,1-2-2V3A2,2,0,0,1,3,1H15a2,2,0,0,1,2,2Z"/><path class="cls-2" d="M15,1H3A2,2,0,0,0,1,3V15H1a2,2,0,0,0,2,2H15a2,2,0,0,0,2-2h0V3A2,2,0,0,0,15,1Z"/><polygon class="cls-3" points="11.83 13.24 4.76 6.17 6.17 4.76 13.24 11.83 11.83 13.24"/><polygon class="cls-3" points="4.76 11.83 11.83 4.76 13.24 6.17 6.17 13.24 4.76 11.83"/></symbol></defs><rect class="cls-4" x="764.5" y="109.5" width="746" height="431"/><line class="cls-4" x1="764.5" y1="468.67" x2="1510.5" y2="468.67"/><line class="cls-4" x1="764.5" y1="396.83" x2="1510.5" y2="396.83"/><line class="cls-4" x1="764.5" y1="325" x2="1510.5" y2="325"/><line class="cls-4" x1="764.5" y1="253.17" x2="1510.5" y2="253.17"/><line class="cls-4" x1="764.5" y1="181.33" x2="1510.5" y2="181.33"/><line class="cls-4" x1="1386.17" y1="109.5" x2="1386.17" y2="540.5"/><line class="cls-4" x1="1261.83" y1="109.5" x2="1261.83" y2="540.5"/><line class="cls-4" x1="1137.5" y1="109.5" x2="1137.5" y2="540.5"/><line class="cls-4" x1="1013.17" y1="109.5" x2="1013.17" y2="540.5"/><line class="cls-4" x1="888.83" y1="109.5" x2="888.83" y2="540.5"/><use width="18" height="18" transform="translate(933.4 562.95) scale(2.13 1.95)" xlink:href="#Panneau_BoutonFermetureSurvolé"/><use width="18" height="18" transform="translate(938.69 493.55) scale(2.13 1.95)" xlink:href="#Panneau_BoutonFermetureSurvolé"/><use width="18" height="18" transform="translate(940.7 529.18) scale(2.13 1.95)" xlink:href="#Panneau_BoutonFermetureSurvolé"/><use width="18" height="18" transform="translate(890.95 619.86) scale(2.13 1.95)" xlink:href="#Panneau_BoutonFermetureSurvolé"/><use width="18" height="18" transform="translate(908.92 509.39) scale(2.13 1.95)" xlink:href="#Panneau_BoutonFermetureSurvolé"/><use width="18" height="18" transform="translate(917.53 592.65) scale(2.13 1.95)" xlink:href="#Panneau_BoutonFermetureSurvolé"/><use width="18" height="18" transform="translate(904.98 543.02) scale(2.13 1.95)" xlink:href="#Panneau_BoutonFermetureSurvolé"/><use width="18" height="18" transform="translate(872.41 410.72) scale(2.13 1.95)" xlink:href="#Panneau_BoutonFermetureSurvolé"/><use width="18" height="18" transform="translate(822.14 641.02) scale(2.13 1.95)" xlink:href="#Panneau_BoutonFermetureSurvolé"/><use width="18" height="18" transform="translate(817.4 606.81) scale(2.13 1.95)" xlink:href="#Panneau_BoutonFermetureSurvolé"/><use width="18" height="18" transform="translate(883.01 485.95) scale(2.13 1.95)" xlink:href="#Panneau_BoutonFermetureSurvolé"/><use width="18" height="18" transform="translate(810.61 397.38) scale(2.13 1.95)" xlink:href="#Panneau_BoutonFermetureSurvolé"/><use width="18" height="18" transform="translate(748.32 635.71) scale(2.13 1.95)" xlink:href="#Panneau_BoutonFermetureSurvolé"/><use width="18" height="18" transform="translate(856.18 638.69) scale(2.13 1.95)" xlink:href="#Panneau_BoutonFermetureSurvolé"/><use width="18" height="18" transform="translate(903.67 431.19) scale(2.13 1.95)" xlink:href="#Panneau_BoutonFermetureSurvolé"/><use width="18" height="18" transform="translate(847.81 471.65) scale(2.13 1.95)" xlink:href="#Panneau_BoutonFermetureSurvolé"/><use width="18" height="18" transform="translate(749.15 409.79) scale(2.13 1.95)" xlink:href="#Panneau_BoutonFermetureSurvolé"/><use width="18" height="18" transform="translate(787.47 648.84) scale(2.13 1.95)" xlink:href="#Panneau_BoutonFermetureSurvolé"/><use width="18" height="18" transform="translate(924.36 463.98) scale(2.13 1.95)" xlink:href="#Panneau_BoutonFermetureSurvolé"/><use width="18" height="18" transform="translate(839.64 404.82) scale(2.13 1.95)" xlink:href="#Panneau_BoutonFermetureSurvolé"/><use width="18" height="18" transform="translate(695.2 444.4) scale(2.13 1.95)" xlink:href="#Panneau_BoutonFermetureSurvolé"/><use width="18" height="18" transform="translate(888.03 457.01) scale(2.13 1.95)" xlink:href="#Panneau_BoutonFermetureSurvolé"/><use width="18" height="18" transform="translate(856.5 439.95) scale(2.13 1.95)" xlink:href="#Panneau_BoutonFermetureSurvolé"/><use width="18" height="18" transform="translate(719.67 421.67) scale(2.13 1.95)" xlink:href="#Panneau_BoutonFermetureSurvolé"/><use width="18" height="18" transform="translate(872.17 555.19) scale(2.13 1.95)" xlink:href="#Panneau_BoutonFermetureSurvolé"/><use width="18" height="18" transform="translate(722.1 462.37) scale(2.13 1.95)" xlink:href="#Panneau_BoutonFermetureSurvolé"/><use width="18" height="18" transform="translate(713.91 620.08) scale(2.13 1.95)" xlink:href="#Panneau_BoutonFermetureSurvolé"/><use width="18" height="18" transform="translate(781.41 585.37) scale(2.13 1.95)" xlink:href="#Panneau_BoutonFermetureSurvolé"/><use width="18" height="18" transform="translate(870.44 515.35) scale(2.13 1.95)" xlink:href="#Panneau_BoutonFermetureSurvolé"/><use width="18" height="18" transform="translate(811.43 481) scale(2.13 1.95)" xlink:href="#Panneau_BoutonFermetureSurvolé"/><use width="18" height="18" transform="translate(883.94 583.57) scale(2.13 1.95)" xlink:href="#Panneau_BoutonFermetureSurvolé"/><use width="18" height="18" transform="translate(713.62 586.87) scale(2.13 1.95)" xlink:href="#Panneau_BoutonFermetureSurvolé"/><use width="18" height="18" transform="translate(747.99 598.9) scale(2.13 1.95)" xlink:href="#Panneau_BoutonFermetureSurvolé"/><use width="18" height="18" transform="translate(770.93 546.29) scale(2.13 1.95)" xlink:href="#Panneau_BoutonFermetureSurvolé"/><use width="18" height="18" transform="translate(781.57 617.76) scale(2.13 1.95)" xlink:href="#Panneau_BoutonFermetureSurvolé"/><use width="18" height="18" transform="translate(804 566.5) scale(2.13 1.95)" xlink:href="#Panneau_BoutonFermetureSurvolé"/><use width="18" height="18" transform="translate(846.88 538.78) scale(2.13 1.95)" xlink:href="#Panneau_BoutonFermetureSurvolé"/><use width="18" height="18" transform="translate(682.7 582.58) scale(2.13 1.95)" xlink:href="#Panneau_BoutonFermetureSurvolé"/><use width="18" height="18" transform="translate(709.57 550.11) scale(2.13 1.95)" xlink:href="#Panneau_BoutonFermetureSurvolé"/><use width="18" height="18" transform="translate(855.1 606.65) scale(2.13 1.95)" xlink:href="#Panneau_BoutonFermetureSurvolé"/><use width="18" height="18" transform="translate(685.26 496.55) scale(2.13 1.95)" xlink:href="#Panneau_BoutonFermetureSurvolé"/><use width="18" height="18" transform="translate(821.5 440.46) scale(2.13 1.95)" xlink:href="#Panneau_BoutonFermetureSurvolé"/><use width="18" height="18" transform="translate(838.01 576.48) scale(2.13 1.95)" xlink:href="#Panneau_BoutonFermetureSurvolé"/><use width="18" height="18" transform="translate(765.89 490.52) scale(2.13 1.95)" xlink:href="#Panneau_BoutonFermetureSurvolé"/><use width="18" height="18" transform="translate(833.43 505.56) scale(2.13 1.95)" xlink:href="#Panneau_BoutonFermetureSurvolé"/><use width="18" height="18" transform="translate(777.72 397) scale(2.13 1.95)" xlink:href="#Panneau_BoutonFermetureSurvolé"/><use width="18" height="18" transform="translate(674.06 552.23) scale(2.13 1.95)" xlink:href="#Panneau_BoutonFermetureSurvolé"/><use width="18" height="18" transform="translate(752.68 445.21) scale(2.13 1.95)" xlink:href="#Panneau_BoutonFermetureSurvolé"/><use width="18" height="18" transform="translate(740.63 564.65) scale(2.13 1.95)" xlink:href="#Panneau_BoutonFermetureSurvolé"/><use width="18" height="18" transform="translate(789.03 431.8) scale(2.13 1.95)" xlink:href="#Panneau_BoutonFermetureSurvolé"/><use width="18" height="18" transform="translate(813.87 534.73) scale(2.13 1.95)" xlink:href="#Panneau_BoutonFermetureSurvolé"/><use width="18" height="18" transform="translate(785.1 464.03) scale(2.13 1.95)" xlink:href="#Panneau_BoutonFermetureSurvolé"/><use width="18" height="18" transform="translate(675.43 470.74) scale(2.13 1.95)" xlink:href="#Panneau_BoutonFermetureSurvolé"/><use width="18" height="18" transform="translate(708.49 516.59) scale(2.13 1.95)" xlink:href="#Panneau_BoutonFermetureSurvolé"/><use width="18" height="18" transform="translate(666 522.34) scale(2.13 1.95)" xlink:href="#Panneau_BoutonFermetureSurvolé"/><use width="18" height="18" transform="translate(731.54 490.05) scale(2.13 1.95)" xlink:href="#Panneau_BoutonFermetureSurvolé"/><use width="18" height="18" transform="translate(743.17 523.4) scale(2.13 1.95)" xlink:href="#Panneau_BoutonFermetureSurvolé"/><use width="18" height="18" transform="translate(784.92 516.81) scale(2.13 1.95)" xlink:href="#Panneau_BoutonFermetureSurvolé"/><rect class="cls-5" x="764.5" y="253.5" width="124" height="72"/><rect class="cls-5" x="1013.5" y="109.5" width="124" height="72"/><rect class="cls-5" x="1137.5" y="325.5" width="124" height="71"/><text class="cls-6" transform="translate(770.1 155.53)"> <tspan class="cls-7" x="2.54" y="0" xml:space="preserve">    Logo</tspan></text><text class="cls-8" transform="translate(907.08 226.92)">Image 1</text><text/><text class="cls-9" transform="translate(895.31 717.75)">CSS : Projet Capitales - Utilisation de Grid</text></svg>