<svg xmlns="http://www.w3.org/2000/svg" viewBox="0 0 560 288"><defs><style>.cls-1{isolation:isolate;}.cls-2,.cls-4,.cls-5,.cls-6,.cls-7,.cls-8{fill:none;}.cls-2,.cls-3{stroke:#29abe2;}.cls-2,.cls-3,.cls-8{stroke-miterlimit:10;}.cls-2{stroke-width:7px;}.cls-3{font-size:36px;fill:#2e3192;stroke-width:0.5px;font-family:ArialMT, Arial;}.cls-5,.cls-6,.cls-7,.cls-8{mix-blend-mode:screen;}.cls-5{opacity:0.15;}.cls-6{opacity:0.5;}.cls-8{stroke:#fff;stroke-width:2px;opacity:0.03;}</style></defs><g class="cls-1"><g id="Calque_1" data-name="Calque 1"><path class="cls-2" d="M414.22,101c0,92.81-95.25,168-212.74,168-94,0-170.19-60.19-170.19-134.43,0-59.4,61-107.55,136.15-107.55,60.16,0,108.92,38.52,108.92,86,0,38-39,68.83-87.13,68.83-38.5,0-69.71-24.65-69.71-55.07,0-24.32,25-44.05,55.77-44.05,24.64,0,44.61,15.78,44.61,35.24,0,15.58-16,28.2-35.69,28.2-15.77,0-28.55-10.1-28.55-22.56"/><text class="cls-3" transform="translate(353.93 57.44)">Projet <tspan x="0" y="43.2">en cours</tspan></text><line class="cls-4" x1="156.39" y1="125.81" x2="178.27" y2="132.42"/><ellipse class="cls-4" cx="156.39" cy="125.81" rx="19.13" ry="18.3"/><ellipse class="cls-4" cx="156.39" cy="125.81" rx="22.95" ry="21.96"/><polyline class="cls-4" points="156.39 125.81 193.63 166.32 156.39 125.81 119.14 85.29 156.39 125.81 114.05 161.45 156.39 125.81 198.72 90.17 156.39 125.81 154.91 128.36 156.39 125.81 157.86 123.26 156.39 125.81 153.72 124.4 156.39 125.81 159.05 127.22 156.39 125.81 148 192.12 156.39 125.81 164.78 59.49 156.39 125.81 87.09 117.78 156.39 125.81 225.68 133.84 156.39 125.81 135.59 229.96 156.39 125.81 177.18 21.66 156.39 125.81 47.56 105.91 156.39 125.81 265.21 145.71 156.39 125.81 152.11 133.33 156.39 125.81 160.66 118.29 156.39 125.81 148.53 121.72 156.39 125.81 164.25 129.9 156.39 125.81 157.79 131.37 156.39 125.81 154.98 120.25 156.39 125.81 150.58 127.16 156.39 125.81 162.2 124.46 156.39 125.81 208.27 180.34 156.39 125.81 104.5 71.28 156.39 125.81 99.41 175.47 156.39 125.81 213.36 76.15 156.39 125.81 179.23 168.61 156.39 125.81 133.54 83.01 156.39 125.81 111.66 147.67 156.39 125.81 201.11 103.94 156.39 125.81 153.62 224.1 156.39 125.81 159.15 27.52 156.39 125.81 53.68 123.16 156.39 125.81 259.1 128.46 156.39 125.81 142.51 149.44 156.39 125.81 170.26 102.17 156.39 125.81 131.69 112.53 156.39 125.81 181.08 139.09 156.39 125.81 158.51 131.29 156.39 125.81 154.26 120.33 156.39 125.81 150.66 127.84 156.39 125.81 162.12 123.78 156.39 125.81 181.62 153.41 156.39 125.81 131.16 98.21 156.39 125.81 127.54 149.95 156.39 125.81 185.23 101.66 156.39 125.81 140.42 170.58 156.39 125.81 172.35 81.03 156.39 125.81 109.6 110.53 156.39 125.81 203.17 141.09 156.39 125.81 175.44 224.79 156.39 125.81 137.33 26.82 156.39 125.81 52.95 144.05 156.39 125.81 259.82 107.57 156.39 125.81 158 134.22 156.39 125.81 154.78 117.39 156.39 125.81 147.59 127.35 156.39 125.81 165.18 124.27"/><ellipse class="cls-5" cx="156.39" cy="125.81" rx="45.9" ry="43.93"/><ellipse class="cls-6" cx="156.39" cy="125.81" rx="22.95" ry="21.96"/><ellipse class="cls-7" cx="156.39" cy="125.81" rx="19.13" ry="18.3"/><polyline class="cls-8" points="156.39 125.81 193.63 166.32 156.39 125.81 119.14 85.29 156.39 125.81 114.05 161.45 156.39 125.81 198.72 90.17 156.39 125.81 154.91 128.36 156.39 125.81 157.86 123.26 156.39 125.81 153.72 124.4 156.39 125.81 159.05 127.22 156.39 125.81 148 192.12 156.39 125.81 164.78 59.49 156.39 125.81 87.09 117.78 156.39 125.81 225.68 133.84 156.39 125.81 135.59 229.96 156.39 125.81 177.18 21.66 156.39 125.81 47.56 105.91 156.39 125.81 265.21 145.71 156.39 125.81 152.11 133.33 156.39 125.81 160.66 118.29 156.39 125.81 148.53 121.72 156.39 125.81 164.25 129.9 156.39 125.81 157.79 131.37 156.39 125.81 154.98 120.25 156.39 125.81 150.58 127.16 156.39 125.81 162.2 124.46 156.39 125.81 208.27 180.34 156.39 125.81 104.5 71.28 156.39 125.81 99.41 175.47 156.39 125.81 213.36 76.15 156.39 125.81 179.23 168.61 156.39 125.81 133.54 83.01 156.39 125.81 111.66 147.67 156.39 125.81 201.11 103.94 156.39 125.81 153.62 224.1 156.39 125.81 159.15 27.52 156.39 125.81 53.68 123.16 156.39 125.81 259.1 128.46 156.39 125.81 142.51 149.44 156.39 125.81 170.26 102.17 156.39 125.81 131.69 112.53 156.39 125.81 181.08 139.09 156.39 125.81 158.51 131.29 156.39 125.81 154.26 120.33 156.39 125.81 150.66 127.84 156.39 125.81 162.12 123.78 156.39 125.81 181.62 153.41 156.39 125.81 131.16 98.21 156.39 125.81 127.54 149.95 156.39 125.81 185.23 101.66 156.39 125.81 140.42 170.58 156.39 125.81 172.35 81.03 156.39 125.81 109.6 110.53 156.39 125.81 203.17 141.09 156.39 125.81 175.44 224.79 156.39 125.81 137.33 26.82 156.39 125.81 52.95 144.05 156.39 125.81 259.82 107.57 156.39 125.81 158 134.22 156.39 125.81 154.78 117.39 156.39 125.81 147.59 127.35 156.39 125.81 165.18 124.27"/></g></g></svg>