<svg xmlns="http://www.w3.org/2000/svg" viewBox="0 0 1148 861"><defs><style>.cls-1{fill:blue;}.cls-1,.cls-6{stroke:blue;}.cls-1,.cls-2,.cls-3{stroke-miterlimit:10;stroke-width:7px;}.cls-2{fill:#f7931e;stroke:#f7931e;}.cls-3{fill:red;stroke:red;}.cls-4,.cls-5,.cls-6{font-size:36px;stroke-linejoin:round;font-family:ArialMT, Arial;}.cls-4{stroke:#662d91;}.cls-5{stroke:#ff1d25;}.cls-5,.cls-6{stroke-width:0.75px;}.cls-7{letter-spacing:-0.04em;}.cls-8{fill:#8f97c1;opacity:0.1;}</style></defs><g id="Calque_2" data-name="Calque 2"><g id="Calque_1-2" data-name="Calque 1"><rect class="cls-1" x="3.5" y="3.5" width="385" height="385" rx="192.5"/><rect class="cls-2" x="374.5" y="472.5" width="385" height="385" rx="192.5"/><rect class="cls-3" x="759.5" y="3.5" width="385" height="385" rx="192.5"/><text class="cls-4" transform="translate(474.78 665.22)">Contrôleur <tspan x="0" y="43.2">Frontal</tspan></text><text class="cls-5" transform="translate(113.63 174.7)"><tspan xml:space="preserve">  </tspan><tspan x="0" y="43.2" xml:space="preserve">  Modèle</tspan></text><text class="cls-6" transform="translate(916.89 214.48)"> <tspan class="cls-7" x="10" y="0">V</tspan><tspan x="32.68" y="0">ue</tspan></text><path class="cls-8" d="M735.15,471.54c23.21-24.09,45.69-48.79,67.83-73.88,1.4-1.59-3.83-1-3.8-1-2.38.13-4.75.33-7.12.58a10.4,10.4,0,0,0-3.66.75c-11.18,12.59-22.39,25.15-33.79,37.54-11.13,12.09-22.57,23.81-34.28,35.33-.34.34-.54.53,0,.86,1.44.89,3.83.5,5.44.55,2.18.07,4.37.1,6.55,0C733.33,472.25,734.4,472.32,735.15,471.54Z"/><path class="cls-8" d="M736.05,469.65c23.38-24.26,46-49.15,68.32-74.41,1.49-1.69-4.25-.38-3.81-.46-2.28.45-4.53,1-6.78,1.55a9.88,9.88,0,0,0-3.42,1.23c-11.18,12.6-22.38,25.17-33.79,37.57q-16.8,18.27-34.46,35.67c-1.59,1.56,4.1.73,3.7.77q3.41-.39,6.78-1A9.34,9.34,0,0,0,736.05,469.65Z"/><path class="cls-8" d="M737.09,471.12q34.89-36.51,68.2-74.42a2.13,2.13,0,0,0-2-.53q-3.67.13-7.33.55c-2.44.22-4.88.53-7.3.92a2.13,2.13,0,0,0-1.86.92q-22.38,25.17-45.24,49.88L742,448l-12,12.25.46-.45-11.88,11.57a2.09,2.09,0,0,0,1.94.7c2.44.13,4.88.16,7.32.11s4.87-.1,7.31-.29A2.08,2.08,0,0,0,737.09,471.12Z"/><path class="cls-8" d="M740.77,473.84q34.82-36.58,68.12-74.48c1.2-1.36-2.54-1.3-2.81-1.32-1.81-.08-3.63-.09-5.44,0a5.93,5.93,0,0,0-2.83.42C786.63,411,775.42,423.64,764,436.06l-11.44,12.4q-11,12-22.81,23.3c-1.27,1.26,2.34,1.55,2.69,1.6q2.71.4,5.44.61A6.22,6.22,0,0,0,740.77,473.84Z"/><path class="cls-8" d="M738.86,468.31q34.78-36.58,68.11-74.45c1.37-1.55-3.53-.36-3.1-.46-1.79.45-3.55,1-5.3,1.52a6.25,6.25,0,0,0-2.62,1.22c-11.17,12.62-22.37,25.21-33.77,37.62q-16.81,18.32-34.34,35.89c-1.44,1.43,3.4.66,3,.71,1.78-.29,3.56-.65,5.32-1.06A6,6,0,0,0,738.86,468.31Z"/><path class="cls-8" d="M740.24,471.63q34.89-36.51,68.19-74.45c1.43-1.62-4-.92-3.91-.92q-3.64.25-7.28.71a10.41,10.41,0,0,0-3.74.81c-11.18,12.61-22.39,25.18-33.79,37.59l-11.44,12.38q-11.1,11.88-22.85,23.11c-1.52,1.5,3.79,1.28,3.78,1.28,2.42.05,4.85,0,7.27,0A10.65,10.65,0,0,0,740.24,471.63Z"/><path class="cls-8" d="M736.86,468.91c11.3-12.19,22.72-24.28,33.92-36.56q17.07-18.74,33.77-37.78c.53-.6.39-1.22-.43-1.39a6.74,6.74,0,0,0-4,1.24c-11.16,12.65-22.35,25.27-33.75,37.71-11.1,12.11-22.36,24.08-33.54,36.13-.49.54-.47,1.17.3,1.42A5.87,5.87,0,0,0,736.86,468.91Z"/><path class="cls-8" d="M734.44,471.4c11.48-12.09,23-24.17,34.22-36.49q17.07-18.72,33.79-37.75c1.2-1.36-2.66-.93-2.63-.94-1.58.17-3.14.39-4.7.68a4.63,4.63,0,0,0-2.38.79c-11.18,12.61-22.39,25.19-33.8,37.6-11.1,12.08-22.47,23.87-34,35.51-1.24,1.24,2.36,1.23,2.46,1.23,1.56,0,3.11,0,4.67-.12A4.55,4.55,0,0,0,734.44,471.4Z"/><path class="cls-8" d="M737.33,474.32Q772.12,437.8,805.41,400c1-1.19-1.75-1.34-2.15-1.39q-2.1-.18-4.23-.18a3.89,3.89,0,0,0-2.21.35C785.63,411.36,774.42,424,763,436.38c-11.15,12.14-22.47,24-34.14,35.68-1.1,1.1,1.48,1.53,2,1.64,1.39.3,2.8.53,4.21.7A3.9,3.9,0,0,0,737.33,474.32Z"/><path class="cls-8" d="M739.4,470q34.92-36.5,68.21-74.45c1.5-1.69-4.32-.53-4-.58q-3.63.57-7.23,1.33a10.7,10.7,0,0,0-3.68,1.12c-11.18,12.61-22.38,25.18-33.79,37.59l-11.43,12.38q-11.15,11.9-22.94,23.17c-1.6,1.57,4.18.91,3.88.93q3.63-.25,7.25-.69A10.56,10.56,0,0,0,739.4,470Z"/><path class="cls-8" d="M735.34,472.82q34.6-36.61,68-74.31c1-1.16-1.76-1.2-2-1.2a34,34,0,0,0-3.77.18,3.1,3.1,0,0,0-1.93.53C773.5,423,751.17,447.63,727.8,471.37c-1,1.07,1.45,1.38,1.84,1.44a35.63,35.63,0,0,0,3.72.3A3.14,3.14,0,0,0,735.34,472.82Z"/><path class="cls-8" d="M738.25,473.16q34.62-36.33,67.73-74c.5-.28.5-.57,0-.85a8.69,8.69,0,0,0-3.44-.45q-3.3-.11-6.62,0a8.89,8.89,0,0,0-3.44.44l-11.56,13,.38-.42Q767.21,426.58,753,442.09c-9.34,10.11-19,19.85-28.8,29.51a1.51,1.51,0,0,0,1.4.89q2.74.52,5.54.8t5.59.43A1.49,1.49,0,0,0,738.25,473.16Z"/><path class="cls-8" d="M737.13,468.12c23.36-24.28,46-49.2,68.25-74.47a.53.53,0,0,0-.26-.81,3.17,3.17,0,0,0-2,.19c-1.62.41-4.18.91-5.34,2.23-11.16,12.63-22.35,25.23-33.75,37.66L752.6,445.31q-11.18,12.24-23.12,23.74c-1.2,1.18,2.36.78,2.2.81C733.24,469.61,736,469.34,737.13,468.12Z"/><path class="cls-8" d="M350.51,393.24a162.89,162.89,0,0,0,11.23,19.18,140.76,140.76,0,0,0,14.59,17.81A175.12,175.12,0,0,0,390,442.93q3.54,2.63,6.93,5.42a52.29,52.29,0,0,1,6.28,5.63l-.41-.48,3.33,4.15c.25.62.54.64.85,0a12.81,12.81,0,0,0,.65-4.17q.3-4,.4-8.08a13,13,0,0,0-.24-4.22,74.27,74.27,0,0,0-7.75-8.41c-4.82-4.52-9.89-8.59-14.48-13.39A157.31,157.31,0,0,1,368.85,399l-4.75-7.37A136.52,136.52,0,0,1,357,376.81a2,2,0,0,0-1.36,1.45q-1.49,3.17-2.73,6.43t-2.38,6.56A2,2,0,0,0,350.51,393.24Z"/><path class="cls-8" d="M351.19,389.82a133.41,133.41,0,0,0,8.45,15.43,88.83,88.83,0,0,0,5.53,7.91,153.92,153.92,0,0,0,11.73,13.9A157.91,157.91,0,0,0,390.73,440c3,2.24,5.87,4.55,8.73,6.94a41.75,41.75,0,0,1,7.36,7.95c1.26,1.57,1.33-3.15,1.32-3,.08-1.92.09-3.85,0-5.77a6.64,6.64,0,0,0-.42-3,55.41,55.41,0,0,0-7.38-7.93q-4.33-3.84-8.72-7.61l.4.35-6.8-6.51.38.37-6.42-6.88.36.4a192.15,192.15,0,0,1-13.37-17.63,137.3,137.3,0,0,1-9.73-18.48c-.79-1.72-2.27,2.14-2.34,2.29-.8,1.77-1.54,3.55-2.21,5.37A6.78,6.78,0,0,0,351.19,389.82Z"/><path class="cls-8" d="M352.12,392.25c3.8,7.4,3.95,7.71,8.25,14.91a39,39,0,0,0,2.93,4.28,112.08,112.08,0,0,0,8.34,10.95,152.43,152.43,0,0,0,19.86,19.66l4.66,3.62a73,73,0,0,1,8.51,7.48l-.44-.44,3.33,4.14c1.51,1.88,1.13-4.8,1.13-4.33,0-2.75-.14-5.49-.31-8.24a13.31,13.31,0,0,0-.61-4.26c-1.28-1.53-2.5-3.17-3.92-4.58-3.22-3.18-6.53-6.22-9.91-9.23A154,154,0,0,1,382.7,415,199.77,199.77,0,0,1,369,397.88l.34.53-5-7.9.32.53a148.79,148.79,0,0,1-7.16-14.9c-.22-.48-.34-.72-.82-.25l-.68,1.23q-.88,2.26-1.59,4.6c-.76,2.38-1.49,4.77-2.1,7.2C352,390,351.58,391.21,352.12,392.25Z"/><path class="cls-8" d="M353,396.33c4.15,8,8.42,15.79,13.94,23a166.08,166.08,0,0,0,15.41,17.48,80.67,80.67,0,0,0,6.92,6.41,88.06,88.06,0,0,0,8.3,6.76l4.57,3.67a41.18,41.18,0,0,1,7.38,7.94c1.28,1.58.86-3.34.9-2.88-.18-1.75-.42-3.48-.73-5.21a5.72,5.72,0,0,0-.82-2.65,38.94,38.94,0,0,0-5.48-6,61,61,0,0,0-6.32-5.46,168.53,168.53,0,0,1-14.26-12.86,144.18,144.18,0,0,1-14.56-17.13l-5-7.4a94.2,94.2,0,0,1-7.81-15.26c-.79-1.75-1.74,2.56-1.68,2.27-.32,1.57-.57,3.16-.77,4.76A4.9,4.9,0,0,0,353,396.33Z"/><path class="cls-8" d="M351.52,390.7a87.94,87.94,0,0,0,6.19,11.57,96,96,0,0,0,7.57,11.37,165.51,165.51,0,0,0,15.35,17.48,81.93,81.93,0,0,0,6.9,6.41,86.55,86.55,0,0,0,8.28,6.76l4.57,3.67a42.17,42.17,0,0,1,7.4,7.93c.9,1.11,1.17-1.56,1.17-1.64,0-1.29.11-3.41-.78-4.47a39.66,39.66,0,0,0-5.49-6,61.2,61.2,0,0,0-6.39-5.53,171.43,171.43,0,0,1-14.43-13.05,143.58,143.58,0,0,1-14.69-17.31l-5.07-7.45a86.48,86.48,0,0,1-7.76-15.1c-.56-1.24-1.61.74-1.74,1C352.15,387.3,351,389.6,351.52,390.7Z"/><path class="cls-8" d="M353.23,393.19c4.16,7.92,8.38,15.65,13.81,22.8a166.14,166.14,0,0,0,15.31,17.48,189.44,189.44,0,0,0,15.11,13.19l4.54,3.67a41.53,41.53,0,0,1,7.38,7.95c1.34,1.65.76-3.67.82-3.12-.24-1.87-.53-3.74-.9-5.6a6.45,6.45,0,0,0-.9-2.85,41.57,41.57,0,0,0-5.48-6,67.4,67.4,0,0,0-6.22-5.47,170.42,170.42,0,0,1-13.95-12.92,143.66,143.66,0,0,1-14.27-17.16l-4.93-7.4A133.36,133.36,0,0,1,356,382.88c-.84-1.79-1.83,2.71-1.76,2.43q-.57,2.55-.94,5.14A5.53,5.53,0,0,0,353.23,393.19Z"/><path class="cls-8" d="M347.71,392.13c4.44,7.67,8.74,15.46,14.13,22.52a166,166,0,0,0,15.42,17.57,81.14,81.14,0,0,0,6.92,6.45,88,88,0,0,0,8.34,6.83l4.59,3.71a42.15,42.15,0,0,1,7.39,7.94c.69.85,1.33-.54,1.44-.95.24-.88.68-2.6,0-3.39a37.61,37.61,0,0,0-5.45-6,65.68,65.68,0,0,0-6.46-5.67,182.3,182.3,0,0,1-14.69-13.38,148.51,148.51,0,0,1-14.85-17.6c-5-7-9.13-14.48-13.49-21.88-.55-.95-1.34-.12-1.77.43S347.22,391.28,347.71,392.13Z"/><path class="cls-8" d="M348.82,393.23a165.68,165.68,0,0,0,11.24,19.06,141.07,141.07,0,0,0,14.63,17.81,174,174,0,0,0,13.76,12.71q3.56,2.63,7,5.42a52.57,52.57,0,0,1,6.3,5.63l-.39-.39,3.34,4.14c1.24,1.54,1.67-2.94,1.69-3q.48-3.07.77-6.17a7.62,7.62,0,0,0,0-3.26c-1.9-2.25-3.74-4.4-5.84-6.45-3.34-3.25-7-6.13-10.4-9.28-4.4-4-8.58-8.3-12.56-12.74a173.8,173.8,0,0,1-15.86-21.44l.27.5-4.21-7.92.25.52-3.5-7.74a1.51,1.51,0,0,0-1.32,1q-1.47,2.39-2.71,4.91c-.87,1.65-1.66,3.35-2.37,5.08A1.48,1.48,0,0,0,348.82,393.23Z"/><path class="cls-8" d="M350.06,397.05c4.19,8,8.47,15.71,14,22.88,2.89,3.77,5.9,7.39,9.09,10.9a121.37,121.37,0,0,0,10,10.23c5.27,4.76,10.89,9,16.42,13.45l-.42-.36a40.12,40.12,0,0,1,7.37,8c1.32,1.64,1.34-3.54,1.32-3.31q.14-3.19.06-6.39a8.13,8.13,0,0,0-.41-3.33L404,445a71.78,71.78,0,0,0-6.3-5.79c-4.55-3.88-8.92-7.73-13.3-11.82l.4.4-6.62-6.93.38.41a191.42,191.42,0,0,1-13.74-17.69,52.85,52.85,0,0,1-4.57-7.48,85,85,0,0,1-5.48-11.17c-.86-1.87-2.26,2.86-2.23,2.78-.69,2-1.33,4-1.9,6.09A8.08,8.08,0,0,0,350.06,397.05Z"/><path class="cls-8" d="M352.75,391.36c4.15,7.88,8.34,15.61,13.74,22.73a165.51,165.51,0,0,0,15.25,17.46,188.48,188.48,0,0,0,15.06,13.17l4.52,3.67a41.85,41.85,0,0,1,7.39,7.94c1.26,1.55.9-3.21.93-2.79-.16-1.69-.39-3.37-.68-5a5.34,5.34,0,0,0-.79-2.56,40.07,40.07,0,0,0-5.49-6,70.64,70.64,0,0,0-6.21-5.51,170.4,170.4,0,0,1-13.92-13,142.85,142.85,0,0,1-14.23-17.19l-4.92-7.4a153.73,153.73,0,0,1-7.52-14.75c-.78-1.66-1.87,2.17-1.85,2.09-.43,1.53-.81,3.07-1.13,4.63A4.77,4.77,0,0,0,352.75,391.36Z"/><path class="cls-8" d="M348.57,395.43c3.06,5.94,4.87,9.79,8.65,15.42A157.08,157.08,0,0,0,371.42,429a140,140,0,0,0,16.95,16.16l4.73,3.59a69.12,69.12,0,0,1,8.58,7.45l-.39-.38,3.34,4.15c1.23,1.53,1.63-2.95,1.64-3q.44-3,.68-6.1a7.55,7.55,0,0,0-.09-3.21c-1.9-2.25-3.74-4.38-5.85-6.43-3.37-3.27-7.06-6.14-10.53-9.29-4.46-4-8.69-8.32-12.73-12.77a176.15,176.15,0,0,1-16.06-21.49l.29.48-4.35-8,.27.5-3.31-7.33c-.23-.5-.24-.56-.78-.36l-.73.87c-.64,1.12-1.23,2.27-1.76,3.45-.86,1.8-1.69,3.61-2.4,5.47C348.59,393.61,348.11,394.54,348.57,395.43Z"/><path class="cls-8" d="M351.66,395.26c4.13,8,8.37,15.77,13.85,23,2.88,3.78,5.89,7.41,9.07,10.93a120.86,120.86,0,0,0,10,10.26c5.25,4.77,10.84,9.05,16.36,13.5l-.46-.39a40.93,40.93,0,0,1,7.37,8c1.46,1.81,1.06-4.41,1.07-3.92q-.12-3.72-.44-7.41a11,11,0,0,0-.66-3.82,55.15,55.15,0,0,0-7.44-7.91q-4.41-3.85-8.87-7.63l.43.41-6.9-6.56.41.43-6.51-6.93.4.44A190.6,190.6,0,0,1,365.86,400a130,130,0,0,1-9.8-18.66c-.91-2-2.26,3.6-2.17,3.29-.64,2.31-1.23,4.62-1.75,7A10.25,10.25,0,0,0,351.66,395.26Z"/><path class="cls-8" d="M349.65,390.55a62.07,62.07,0,0,0,6.06,11.84,103,103,0,0,0,7.61,11.38A165.33,165.33,0,0,0,378.7,431.3a79.44,79.44,0,0,0,6.92,6.44,87.44,87.44,0,0,0,8.31,6.81l4.59,3.69a41.85,41.85,0,0,1,7.39,7.94c.75.92,1.31-.85,1.36-1.17.17-1,.47-2.8-.26-3.65a38.6,38.6,0,0,0-5.46-6,63.85,63.85,0,0,0-6.45-5.61,177.8,177.8,0,0,1-14.61-13.25A146.91,146.91,0,0,1,365.69,409l-5.1-7.51A57.31,57.31,0,0,1,353,386c-.46-1.17-1.56.3-1.8.66C350.66,387.42,349.18,389.54,349.65,390.55Z"/><path class="cls-8" d="M548.17,162q41.21.22,82.41.16c.61.2.81,0,.6-.61a11.39,11.39,0,0,0-2.5-3.07c-1.77-1.82-3.57-3.59-5.42-5.31a11.55,11.55,0,0,0-3.13-2.44H578.46c-13.67,0-27.3-.4-41-.89a1.74,1.74,0,0,0,.58,1.75c1.29,1.7,2.64,3.35,4.07,4.94s2.85,3.18,4.37,4.68A1.74,1.74,0,0,0,548.17,162Z"/><path class="cls-8" d="M548.21,159.69c27.68.24,55.36.21,83,.21,2.11,0-2.06-3.13-1.79-2.91-1.6-1.25-3.24-2.44-4.92-3.59a7.29,7.29,0,0,0-2.81-1.5c-27.46,0-54.89.11-82.34-.75-2.06-.06,1.73,3.17,1.55,3q2.24,2,4.59,3.87A7.31,7.31,0,0,0,548.21,159.69Z"/><path class="cls-8" d="M549.73,161.7q41.22.17,82.42.13c.68.2.86,0,.55-.65a14.49,14.49,0,0,0-3.14-3.21q-3.24-2.83-6.59-5.52a14.31,14.31,0,0,0-3.71-2.52H577.59c-13.73,0-27.42-.43-41.13-.94a2.07,2.07,0,0,0,.88,1.85c1.65,1.79,3.35,3.51,5.12,5.16s3.53,3.33,5.38,4.89A2.08,2.08,0,0,0,549.73,161.7Z"/><path class="cls-8" d="M552.79,165.68c27.71.12,55.41.09,83.11.09,2,0-1.67-3.15-1.56-3.06q-2.26-2.06-4.64-4A7.75,7.75,0,0,0,627,157c-27.49,0-55,.26-82.44-.65-2-.06,1.37,3.18,1.34,3.15q2.1,2.2,4.33,4.28A7.48,7.48,0,0,0,552.79,165.68Z"/><path class="cls-8" d="M550.71,159.86q41.47.13,82.95.08c1.74,0-1.32-2.29-1.12-2.15-1.42-1-3.6-2.66-5.41-2.66-27.52,0-55,.2-82.55-.48-1.71-.05,1.09,2.32,1,2.22,1,.79,2.12,1.52,3.24,2.21A3.32,3.32,0,0,0,550.71,159.86Z"/><path class="cls-8" d="M552.17,162.83q41.54.16,83.06.11c2.25,0-2.51-3.44-2.17-3.17-1.84-1.4-3.71-2.75-5.63-4.06a9.5,9.5,0,0,0-3.18-1.74c-27.46,0-54.89.19-82.34-.73-2.2-.08,2.18,3.5,1.93,3.27,1.73,1.51,3.49,3,5.3,4.38A9.45,9.45,0,0,0,552.17,162.83Z"/><path class="cls-8" d="M548.54,161.6c27.55-.39,55.11-.21,82.67-.21a.85.85,0,0,0,.89-1.14,4.36,4.36,0,0,0-2.43-1.92c-27.36,0-54.73-.3-82.08.35C545.47,158.73,547.4,161.62,548.54,161.6Z"/><path class="cls-8" d="M546.79,161.94c27.59,0,55.18.06,82.77.06,1.82,0-.84-2.71-.94-2.82-1.15-1.27-2.36-2.5-3.6-3.68a5.32,5.32,0,0,0-2.19-1.6c-27.3,0-54.57.06-81.87-.59-1.74,0,.46,2.61.65,2.87q1.51,2.06,3.18,4A5.37,5.37,0,0,0,546.79,161.94Z"/><path class="cls-8" d="M549.45,166q41.47,0,83,0c1.86,0-.89-2.9-1-3.06-1.22-1.45-2.5-2.86-3.82-4.22a6.52,6.52,0,0,0-2.31-1.9c-27.38,0-54.74.17-82.11-.54-1.81-.05.54,2.83.75,3.12q1.64,2.32,3.43,4.51A6.58,6.58,0,0,0,549.45,166Z"/><path class="cls-8" d="M551.19,161c27.67.14,55.34.13,83,.13,2.2,0-2.49-3.19-2.06-2.88-1.74-1.21-3.52-2.36-5.32-3.46a8.25,8.25,0,0,0-3-1.42c-27.46,0-54.91.17-82.36-.71-2.16-.06,2.16,3.26,1.83,3,1.64,1.3,3.31,2.56,5,3.76A8.07,8.07,0,0,0,551.19,161Z"/><path class="cls-8" d="M547.33,164c27.6-.11,55.21,0,82.81,0,1.72,0-.48-2.51-.66-2.74q-1.51-1.89-3.17-3.64a4.92,4.92,0,0,0-2-1.6c-27.33,0-54.65.09-82-.48-1.66,0,.14,2.39.39,2.78.88,1.35,1.81,2.65,2.79,3.92A4.73,4.73,0,0,0,547.33,164Z"/><path class="cls-8" d="M551,164.75q41.22.1,82.43.09c.61.18.8,0,.59-.62a11.4,11.4,0,0,0-2.52-3c-1.78-1.77-3.59-3.5-5.45-5.18a11.3,11.3,0,0,0-3.14-2.37c-27.57,0-55.11.17-82.66-.82a1.72,1.72,0,0,0,.59,1.73c1.3,1.67,2.67,3.29,4.1,4.84s2.87,3.12,4.4,4.58A1.74,1.74,0,0,0,551,164.75Z"/><path class="cls-8" d="M549.1,159.86c27.58.59,55.18.35,82.76.35.82,0,1.22-.41.8-1.21a9.15,9.15,0,0,0-1.73-1.37,8.87,8.87,0,0,0-1.94-1H570.68q-12.67.16-25.32-.74c-1.32-.06.17,1.76.28,1.87C546.5,158.54,547.83,159.83,549.1,159.86Z"/></g></g></svg>