<svg xmlns="http://www.w3.org/2000/svg" viewBox="0 0 414.36 7.26"><defs><style>.cls-1{fill:#2d2e83;}.cls-2{fill:#1d1d1b;}</style></defs><g id="Calque_2" data-name="Calque 2"><g id="Calque_1-2" data-name="Calque 1"><path class="cls-1" d="M0,3.22l168.08.34,246.28.49-80.07-.16-67.54-.14-52.9-.1Z" transform="translate(0)"/><path class="cls-2" d="M1,5.65c-.61,0-.81.08-.87.19A.24.24,0,0,0,.06,6s0,0,0,.07l0,0H0v0H.35l.28,0A2,2,0,0,0,1,6c.18-.05.23-.12.22-.17S.94,5.6,1,5.65Z" transform="translate(0)"/><polygon class="cls-2" points="21.16 4.74 20.81 4.91 23.79 4.5 21.16 4.74"/><path class="cls-2" d="M40.05,4.79c-1.78-.72-6.84.1-10.21-.16l-.55-.17L27.77,5C31.86,5,37.17,4.58,40.05,4.79Z" transform="translate(0)"/><path class="cls-2" d="M50.12,6.35c-.62-.28,2.18-.23-2.35-.09l.43.07C48.61,6.33,49.17,6.33,50.12,6.35Z" transform="translate(0)"/><path class="cls-2" d="M48.2,6.33c-2,0,1.3.24,0,0Z" transform="translate(0)"/><path class="cls-2" d="M57.39,6.19l-2.62.24c.54.17,2.87.21,2,.33C59.47,6.63,58.91,6.46,57.39,6.19Z" transform="translate(0)"/><path class="cls-2" d="M59.87,5.67l-1.36.11A2.54,2.54,0,0,0,59.87,5.67Z" transform="translate(0)"/><path class="cls-2" d="M55.63,6l2.88-.21c-.38-.12-.42-.35-1.32.07C57.43,5.64,56.86,5.85,55.63,6Z" transform="translate(0)"/><path class="cls-2" d="M54,5.88c-1.47-.16-3.37-.26-.74-.5C48.25,5.47,49,6,54,5.88Z" transform="translate(0)"/><path class="cls-2" d="M41,4.05l-2-.21-1.7.23C38.2,4,41.14,4.28,41,4.05Z" transform="translate(0)"/><path class="cls-2" d="M73.71,6.59c.16-.15-.89-.4-1.08-.6l-1.94.17A13,13,0,0,1,73.71,6.59Z" transform="translate(0)"/><path class="cls-2" d="M72.63,6l2.9-.25C72.94,5.7,72.47,5.82,72.63,6Z" transform="translate(0)"/><polygon class="cls-2" points="60.34 4.88 55.58 5.42 61.25 4.88 60.34 4.88"/><polygon class="cls-2" points="84.76 6.63 83.12 6.98 86.05 6.46 84.76 6.63"/><path class="cls-2" d="M92.1,6.59c-1.22.29,1.66.49.38.67a41.06,41.06,0,0,0,5.23-.52A29.56,29.56,0,0,1,92.1,6.59Z" transform="translate(0)"/><path class="cls-2" d="M100.28,6.42c-.81.07-1.66.19-2.57.32A22.55,22.55,0,0,0,100.28,6.42Z" transform="translate(0)"/><path class="cls-2" d="M80.46,5.82a5.66,5.66,0,0,0,2.28.44L81.6,5.83Z" transform="translate(0)"/><path class="cls-2" d="M81.56,5.82h0l2.46,0Z" transform="translate(0)"/><path class="cls-2" d="M80.17,5.82h.29A.33.33,0,0,0,80.17,5.82Z" transform="translate(0)"/><path class="cls-2" d="M67.93,5.29c1.7-.24,5.25-.49,1.81-.86C68.52,4.72,70.49,4.93,67.93,5.29Z" transform="translate(0)"/><path class="cls-2" d="M78.76,5.28l-3.08-.1c.06.11.62.28-.23.39Z" transform="translate(0)"/><polygon class="cls-2" points="80.26 5.15 78.75 5.28 79.89 5.32 80.26 5.15"/><path class="cls-2" d="M95,6a39.44,39.44,0,0,1,4.42-.22c-1.76-.09-3.57-.14-5.3-.14C93.88,5.78,93.12,6,95,6Z" transform="translate(0)"/><path class="cls-2" d="M88.47,5.88l.3,0C88.59,5.82,88.44,5.81,88.47,5.88Z" transform="translate(0)"/><path class="cls-2" d="M115.59,5.82l-.25-.07-.07.07Z" transform="translate(0)"/><path class="cls-2" d="M93.83,5.57A10.77,10.77,0,0,0,91,5.72c1,0,2-.07,3.16-.07C94.24,5.59,94.26,5.55,93.83,5.57Z" transform="translate(0)"/><path class="cls-2" d="M104.79,6.23c-.69-.09-1.47-.17-2.29-.24A8.49,8.49,0,0,0,104.79,6.23Z" transform="translate(0)"/><path class="cls-2" d="M89.21,6,89,6C89.45,6.09,89.4,6,89.21,6Z" transform="translate(0)"/><path class="cls-2" d="M89.21,6c.68-.06,1.22-.16,1.76-.25-.81,0-1.55.07-2.2.14A3.13,3.13,0,0,1,89.21,6Z" transform="translate(0)"/><path class="cls-2" d="M120.49,3.09c-.23.4-3.71.76-6.71.33-3,.29-1,1.59,1.56,2.33.09-.18.09-.34,3.13-.56-1.07-.22-6.75-.52-4.18-.88,4-.19,3.3.15,5.25.36-1.66-.49,5.13-.7,4.25-1.43l-3.53.25C120.19,3.37,121.47,3.2,120.49,3.09Z" transform="translate(0)"/><path class="cls-2" d="M109.54,5.69l-1.25,0a33,33,0,0,1,4.33.55c2.08-.19,2.51-.34,2.65-.47l-6.15-.07Z" transform="translate(0)"/><path class="cls-2" d="M102.68,5.73c1-.43,4-.61,2.14-1.08-3.67,0-2.57.36-4.76.54,5.92-.09-1.71.24,2.57.49-1.16.07-2.21.09-3.2.11,1.07,0,2.1.12,3.07.2l-.14,0h0c-.26,0-.34-.09,0-.06h.12a.66.66,0,0,1,.27-.17c1.71.1.27.12-.27.17,0,0-.07,0-.07.06h0l5.93-.22C107,5.68,105.47,5.69,102.68,5.73Z" transform="translate(0)"/><path class="cls-2" d="M72.91,3.51c.18,0,.17.07.19.1C73.48,3.56,73.63,3.52,72.91,3.51Z" transform="translate(0)"/><path class="cls-2" d="M75.35,3.77A7.48,7.48,0,0,1,73.16,4c-1.22-.13,0-.21-.06-.35-.85.11-3,.3-.31.52l.42-.06a22.93,22.93,0,0,1,5,.75A10.41,10.41,0,0,0,75.35,3.77Z" transform="translate(0)"/><path class="cls-2" d="M89.18,4.64l4.95-.2-2.52-.38.13.23C88.93,4.19,89.53,4.47,89.18,4.64Z" transform="translate(0)"/><polygon class="cls-2" points="116.16 6.04 115.5 6.49 118.36 5.86 116.16 6.04"/><polygon class="cls-2" points="122.58 6 122.34 6.39 124.03 6.16 122.58 6"/><path class="cls-2" d="M343.84,1.54l-1.45-.12C343.08,1.46,343.52,1.49,343.84,1.54Z" transform="translate(0)"/><path class="cls-2" d="M354.36,1.53l.25.19C354.13,1.62,353.93,1.54,354.36,1.53Z" transform="translate(0)"/><path class="cls-2" d="M280.25,6.27c2.12.38,4.48,1,4.22.51l-.64-.44A22.28,22.28,0,0,1,280.25,6.27Z" transform="translate(0)"/><path class="cls-2" d="M388.25,3.9l-.62-.13-1.43.41Z" transform="translate(0)"/><path class="cls-2" d="M389.74,2.11l2.79.28C391.9,2.29,391,2.2,389.74,2.11Z" transform="translate(0)"/><path class="cls-2" d="M286.37,6.63l-1.68.44C287.31,7.07,286.16,6.84,286.37,6.63Z" transform="translate(0)"/><path class="cls-2" d="M188.33,6c1.83.17,3.28.25,4.55.27C190.69,6,188.91,5.61,188.33,6Z" transform="translate(0)"/><path class="cls-2" d="M348,6.15c-.89-.08-1.27-.17-1.25-.27C347.66,6,348.18,6,348,6.15Z" transform="translate(0)"/><path class="cls-2" d="M198.15,6.25l-1-.1c-1.33.07-2.68.12-4.31.09A19,19,0,0,0,198.15,6.25Z" transform="translate(0)"/><path class="cls-2" d="M78.25.9l-.47,0C77.73.89,77.94.89,78.25.9Z" transform="translate(0)"/><path class="cls-2" d="M17.63,5.15c.6,0,1.58,0,2.49,0A22.39,22.39,0,0,1,17.63,5.15Z" transform="translate(0)"/><path class="cls-2" d="M148.41,6.24c-1.36,0-.22,0,0,0Z" transform="translate(0)"/><path class="cls-2" d="M141.79,4.51c.29,0,.51-.11.54-.21A1,1,0,0,1,141.79,4.51Z" transform="translate(0)"/><path class="cls-2" d="M211.72,3.58h.12C211.44,3.49,211.51,3.51,211.72,3.58Z" transform="translate(0)"/><path class="cls-2" d="M146.36,6c.51,0,1.1.1,1.74.13C147.82,6.14,147.29,6.09,146.36,6Z" transform="translate(0)"/><path class="cls-2" d="M146.64,6.24l-1.19,0C145.28,6.27,145.43,6.32,146.64,6.24Z" transform="translate(0)"/><path class="cls-2" d="M150.31,6.22c-.78,0-1.51,0-2.21,0,.27,0,.38.06.31.07Z" transform="translate(0)"/><path class="cls-2" d="M189.82,4.91l-.3,0C188.15,5.05,188.75,5,189.82,4.91Z" transform="translate(0)"/><path class="cls-2" d="M315.7,1.84l-.15,0h.2Z" transform="translate(0)"/><path class="cls-2" d="M320.59,1.53a12.82,12.82,0,0,1-4.84.34l1.61,1.26Z" transform="translate(0)"/><path class="cls-2" d="M318.67,1.36,322.11,1C318,.33,315,.54,318.18,0c.49,1.36,13.36.17,13.84,1.52l2.26-.28c-.64,0-.75-.07-1.39-.05,4.4-.64,3.27,1,8.95.8,2-.1,3.35-.29,2-.45l4.41.34c1.28,0,1-.26-.31-.24l6.72.13-.05-.05c1,.22,3.13.55,4.2.7,1.7-.2-.86-.15-.42-.32l3.72.34c1.51-.35-1.57-.7-4.14-.65,3.47-1.35,3.09.34,10.58-.43L365,1.18c2.27-.77,5-.48,9-.95-.94.24-7.95,1.19-3.91,1.54a21.43,21.43,0,0,1,4.81.13c0-.49,2.15-.36,4.81-.33l-.18-.64c2.88.19,2.65.52,4.34.81,3.21-.06,3.88-.55,4.63-1,5.14-.09-3.55.79,2.53.92a85.07,85.07,0,0,1,12.38.43c3-.22-.52-.4.55-.58l2.65.52c.65,0,.44-.17.34-.25,2.23.2.18.64,3.69.82a2.92,2.92,0,0,0,1.59.15c.4,0,.85-.06,1.34-.12l.76-.08-.79-.09a26,26,0,0,0-7.05-.1c-1.07-.18.52-.39.19-.64-6,.52-5.11.37-10,1.07l-4.17-.43c3.06.49-.86,1-4.28,1.51,1.08.23,2,.44,2.63.54l-5.47.33c-.66-.11-.11-.33.79-.59l-1,.15c-2-.24-.95-.61.46-1l2,.4C389,3.38,390.24,3,390,2.58a15.5,15.5,0,0,1-1.79.17c.35-.11.58-.2.41-.27a7.24,7.24,0,0,0-1.65.24L385.69,2l-.3.29-7.16-.46c-5.12.7-9.58,1.75-17.71,2,2-.52.44-.85.55-1.47,2.21.66,6.29-.27,10.51-.13-2.2-.07-1.72-.37-1.16-.47l-7.51.58c.17-.5-1.6-.38-3.56-.59,1.48,1-5.6.65-8.66,1-.19-.33.54-.67,4.27-.59-4.11-.76-5.32,1.17-9.36.52a5.1,5.1,0,0,0,1.77-.12c-2.13.29-7.33,0-6.11-.25h.91c-6.05-.13-18.41,0-19.31.8-.06-.11.79-1,1.16-1.19l-10.8,2.84c1-.73-2.69-2.48,2.33-2.88a35.53,35.53,0,0,0-6.26,0c1,.1,2.45,1.06,1.1,1.12a67,67,0,0,0-7.09-1.14c1.47.16-.17,1.3-2.5,1.26.37-.17-.19-1.13.66-1.25L295.67,3c1.45-.2.26-1-1-1.28.6.22-5,0-6.55.08l2.46.27c-6.54-.19-6.46,1.56-13,1.49.78-.23,1.94-1.42-1.36-1.57a44,44,0,0,1-12.44,3.19l-1.1-.33-4.4.36c2.74-.86,10.44-2.67,14.64-3.37-2.44-.26-.68-.39-4.34-.37-1.29-.31,2-.46,3.08-.48L263.13.77c.38.67-6.52.66-6.2,1.22l9.27-.68c.38.67-5.36,1.9-11.4,1.77-1.54-.27,1.15-1.2,1-1.42a33.9,33.9,0,0,1-6.29.26l2.56-.35c-3.36-.26-5.49.88-9.53.23-1.4-.05-4.17-.87-4.41-.48,2.28.78,2.72,3.15,1.2,3.72-.49,0-7.33-.75-8.92-1.13-2.3-.6,3.45-1.42,1.49-1.94a5.7,5.7,0,0,1-1.88.47c-1.46-.16.61-.56-2.58-.49-.53.68-6.47-.07-1.5.58-3.12.19-3.31-.15-7-.13,1.16.44-3.29,1.49-6.41,1.68.18-.17-.52-.4-.86-.5-6.38-.08-9.81-.39-15.77-.41-.55-.17-3.42-.37-2.19-.66a18.76,18.76,0,0,1-3.49.36c-3.55-.6,4.1-.08,1.39-.8-.23.4-4.75.54-7.37.78.81.61,6.05.13,8.67-.11,0,.84-4.55,1.72-10.78,2.09-5,.2-2.14-.55-3-.43-9.29-.16-7.92,1.46-15.63.84-3.06-.55-.14-1.07-.82-1.46,4-.2,6.19.35,8.92.33l-3.36-.26a29.45,29.45,0,0,1,5.43-.14c-2.56-.49-15.69-.13-22.86-.59-1.28.18-3.47.36-2.43.58l2.26-.07c2.09.44-4.27.59-1.39.8a62.06,62.06,0,0,1-10.74.51l-.81-.61a12.58,12.58,0,0,0,4,.19c-1.79.26-6.57-.85-8.53,0l3,.43a68.52,68.52,0,0,1-10.62.75c1.72.61.87-.07,3.57.64-2.34-.88,9.71.06,5.95-.87,2.77.82,4.79.35,8.41,1.06-.11-.2-1.28-.39,1.91-.28a5.85,5.85,0,0,1,.7-.18l.21,0-.17,0c.13,0,.15,0-.07,0a6.76,6.76,0,0,1-1.62-.32c1.58-.46,6.65-.43,8.36-.67,1.89.1-.79.23.24.45l2.56-.35c.26.45,5,.75.57,1l4,0a43.79,43.79,0,0,0,7.61.18c1.89.1,4.78-.48,3.13-.14l6.29-.26.06.11c6.2.07,12.77-.72,19.86.11A72.71,72.71,0,0,1,204.93,6l.68.39c2.68-.13,8.06.4,9.21,0,2.89,1.05,13,.26,17.73.45l.18-.51c3.25,0,6.36-.1,10.39-.29l-.25-.45c3.48-.36,8.93.33,14.43.3a9,9,0,0,1-2.75,0c6.56,1,13.85-.71,19.8,0A15.84,15.84,0,0,1,278,6l-.37,0h.61l2.06.24c-.62-.11-1.21-.2-1.73-.24,1.14,0,2.88-.06,4.58-.17l.73.48h.39c1.67.18,1.34-.22.45-.59.86-.08,1.64-.17,2.25-.28,1.36.78,4.47-.26,6.32.58,1.14-.41,8.55-.29,9.46-1.14.06.11.56.16-.36.17a29.48,29.48,0,0,0,5.49,0l.81.62,4.14-.82c2.51.38,3.56.6,1.06,1.07,6-.72,4.89-.27,10-1l-.25.39c1.84,0,4.77-.53,5.87-.2,4.1.76,20.3.14,30.83.86-2-1.17,4.89.53,5.31-.37.62.28,2.08.44.38.67,5.37-.26,8.07.46,11.78-.3.62.28-1.15.4-.6.57a7.38,7.38,0,0,1,2.27-.07c.54.16-.79.23-1.64.35,5.49,0,6-.89,6.44-1.68A13.87,13.87,0,0,0,390.43,5c1,.26,2.59.54-.83.62,1.92,0,11.73.41,11.92-.23a14.14,14.14,0,0,0,3.19,0c4.31,0,4.68.11,8.91.06l-1.17-.11a4.24,4.24,0,0,1,1.31-.35l.35,0c.08,0,.37,0,.14,0h-.79c-1.09,0-2.41.17-4.11.12l.1.08c-7.82.54-3.38-.28-11.09.34l.42-.48c-.72-1-6.83.6-11.3.19l1.61-.27c-2.44-.35-6.83,1.39-9.28,1.52-.54.09.84.14,1.59.21-6.43.6-.84-.63-5.62-.79-.89.34,1.13.87-2.09.93-1.6.27-9.35-1.12-13.74-.48,1-.26,1.93-.52-.3-.72-3.41-.1-9.21,1-12.29.14-.43.07-.6.14-.62.2-2.6-.22-8.46-.37-10-.82-2.41,1.65-16.21-.84-16.14.69l-8-.1.21.16A33.52,33.52,0,0,1,304,5.16c-1.18.1-.32.25-.22.33-3.74.14-5.79.2-7.68.12-.94,0-1.85-.11-2.88-.22l-.77-.1-.34-.06c-.07-.06-.21,0,0-.26a2,2,0,0,0,.32-.51,1.38,1.38,0,0,0-.68-1.76,1.59,1.59,0,0,0-.39-.13,3.53,3.53,0,0,0-.83,0c-.44,0-.82.08-1.24.12l-.64-.49c-1.78.28-10.88-.8-18.24-.24.07-.06.23-.15.81-.22-8.27.56-19.78-1.42-22.81.38L243,2.53c7.06.15-1.05.78,1.85,1.08-2.77.1-7.17-.56-3.76-.64l.53.09c1.26-.94-8.76-.35-8.57-1-13.88,0-27.4-.53-40.4-.6l1.49.74-4.53-.06c-1.19-.17-1.6-.57,1.64-.53a13.74,13.74,0,0,0-5.52.49c-6.34-.31,2.47-.85.53-.87l-2.64.05.6.09a25.23,25.23,0,0,1-6.22.56c-2.46-.15-1.26-.45-2.23-.48,0-.05-.32-.08-1.49,0l-5.71-.08,2.28.58c-2.53.28-5.37,0-2.73.62-3.87-1-21.31-.4-23.69-.72a87.5,87.5,0,0,1-11.38.34c1.08.12,1.72.77-2,.69,1.37-1.34-6.85-.6-9.87-1.57,2.7.64-10.63.14-6.4,1.05-3.12-.11-.18-.5-2.55-.82-7.41.51-16.4-.37-25.49-.21-.15.17,1.35.44-.59.7L85,1.81c-.13,0-.36-.1-.19,0a1.66,1.66,0,0,1,.49.38,1.68,1.68,0,0,1,.44,1,1.83,1.83,0,0,1-.43,1.27,1.88,1.88,0,0,1-.88.57c-.18.06-.29.08-.4.11l-2.76.48c-1.85-.09-1.71-1-5-.42.47-.15,1.17-.37,0-.43-18,.82-36.77-.77-55,.8,2.47-.33.82-.37-1.07-.39,1.23-.08,0-.43.22-.67l-7.65.65c-1.39-.67-8.2-.07-9-.7l2.42.12c-3.22-.75,4.51-1.65,4-2.61,3.61.86,9.51-1.24,15.42,0,1.31-.19-1.11-.31-.41-.53a21.12,21.12,0,0,0,6.67.32l-.38-.1c9.43.12,13.47-.28,24.06-.52l-.78.47a28.46,28.46,0,0,0,3.82-.33c2.61.73-6.39,0-4,.83,3-1,16.05,0,18.08-1.07,3.49,0-1,.54,2.47.54L76,1.29l.88.38c2.29-.06,3.43-.42,3.51-.68C79.86,1,78.84.92,78.25.9A24.06,24.06,0,0,1,80.8.77l1.37,0,.64,0c.16,0,.41,0,.25.1a5.12,5.12,0,0,0-.46.27,2.48,2.48,0,0,0-.72.76,2.6,2.6,0,0,0-.37,1,2.59,2.59,0,0,0,.13,1.24,2.56,2.56,0,0,0,1,1.25,2.35,2.35,0,0,0,.61.3,2.66,2.66,0,0,0,.6.14,7.7,7.7,0,0,0,1,0l1.27,0a14.79,14.79,0,0,1,1.53,0l-1.73-.09L85,5.71l-.52,0a5.63,5.63,0,0,1-.78-.1,5.19,5.19,0,0,0,.82.07h.55l1,0,1.9,0,3.84,0h7.87c5.27,0,10.5,0,15.12-.34l-.7-.22c7-.4,5.64.26,13.39.08l-.28.05a39.32,39.32,0,0,1,5.73-.29c-2,.25,3.68.51,1.12.8,7.64-.43,3.78-.35,8.83-1.17l1.17.38a22.21,22.21,0,0,1,5.73-.6c-3.17.31,2.46.57-1.09,1,8.11.83,12.05-.79,15.77.4,3.73-1-7-.58-4.93-.8-1.75-.34,3.07-.76,5.62-.65s4.41,1.32,10.93,1.32c-.65,0-.7.07-1.34.06,2.43.27,4.78-.34,7.77.09,1.68-.62,3.88,0,4.37-.75l-6,.17c3.39-.2,6.57-1.12,12.16-.66a23,23,0,0,1-3.24.48c1.63.24,3.14-.14,4.83.1-.48.79-7.27.16-10.9.75,1.75.34,6.87-.56,5.05.3,2.62-1.09,6.42.15,10.84-.68l-.3.48a26.51,26.51,0,0,1,3.44-.28l-2.33.61c3.57-.52,6.89.47,10.32.19-7.18,0-1.61-.57-4.65-.92,8.86-.62,5.09,1.25,15,1-1.34.06-5-.3-2.93-.51a46.55,46.55,0,0,1,5.53.54c6.57-.09-1-.49,1.79-.78,2.24.58,3.23-.23,6.11-.41l0,.49c7.48.32,2-1,8.72-.62l-2.85.67L241,5.71l-.72.55a45.79,45.79,0,0,1,8.75-.13c-.87-.34.49-.88,3.81-.89,2.26.3-1.27.46,3.43.4a7.56,7.56,0,0,1-4.27.23c-.21.16-1.05.3-1.26.45a61.09,61.09,0,0,0,7.81.09,16.76,16.76,0,0,1-1.83-.12l6.81-.65c1.07.18.22.33-.62.47,1.38-.05,2.33-.27,4.36-.31-.53.39-.4.8-3.28,1l6.49-.43c.44.18,3.33.48,2.48.62,3.59.24,8.84-.74,13.55-.43a8.56,8.56,0,0,1,1.72-.2l1.51,0c.18,0,.46,0,.25-.09a4.08,4.08,0,0,1-.52-.36,2.7,2.7,0,0,1-.66-.87,2.65,2.65,0,0,1-.12-2,2.7,2.7,0,0,1,.86-1.25,3.1,3.1,0,0,1,.66-.4,3.7,3.7,0,0,1,.71-.21,12.67,12.67,0,0,1,1.27-.12l.92,0L294.85,1a55.46,55.46,0,0,1,7.26.23l3-.7c4.17.17-4.08.88,2.86,1.16,4.92.23,1.83-.6,3.56-.79a40.61,40.61,0,0,0,11.19.53C321.24,1.31,320.07,1.41,318.67,1.36ZM370,1.77c-1-.1-3-.42-3.71-.13C367.44,2.19,368.31,1.93,370,1.77ZM380.69,3a10,10,0,0,1,3.17.11A23.68,23.68,0,0,1,380.69,3ZM163.34,5.88l.1,0C165.66,6.05,164.87,6,163.34,5.88Zm-4.61-.22c-.46.07-.43.13-.24.2A10.63,10.63,0,0,1,161,5.77,5.47,5.47,0,0,0,158.73,5.66Zm16.55-4,.89.12C174.15,1.9,174.72,1.78,175.28,1.64Z" transform="translate(0)"/><path class="cls-2" d="M389.54,2.32a.63.63,0,0,1,.42.26C390.35,2.5,390.36,2.4,389.54,2.32Z" transform="translate(0)"/><path class="cls-2" d="M286.68,6.55h-.15a.37.37,0,0,0-.16.09Z" transform="translate(0)"/><path class="cls-2" d="M230.1,1.71a9.42,9.42,0,0,1,1.82.26C232,1.85,231.55,1.75,230.1,1.71Z" transform="translate(0)"/><path class="cls-2" d="M134.32,6.43l3-.12a17.2,17.2,0,0,1-2.66-.16C134.68,6.26,135.24,6.42,134.32,6.43Z" transform="translate(0)"/><path class="cls-2" d="M108.71,3.39c-.43.06-.92,0-1.34.07l.12.22C109.32,3.67,110.61,3.49,108.71,3.39Z" transform="translate(0)"/><path class="cls-2" d="M131.59,4.82c-.24-.41-2.09-.27-4.15-.2h.36C127.19,5.19,129.39,5,131.59,4.82Z" transform="translate(0)"/><path class="cls-2" d="M127,4.63c-.64,0-1.29,0-1.91,0C124.8,4.87,125.82,4.69,127,4.63Z" transform="translate(0)"/><path class="cls-2" d="M152.89,5.92c-1-.11-.62.51-1.17.35C150.62,6.78,158.25,5.66,152.89,5.92Z" transform="translate(0)"/><polygon class="cls-2" points="129.91 3.48 130.65 3.98 131.81 3.58 129.91 3.48"/><path class="cls-2" d="M146.24,3.88l-3.31-.14c0,.08-.37.13-.88.16A26.5,26.5,0,0,0,146.24,3.88Z" transform="translate(0)"/><path class="cls-2" d="M142.05,3.9a22.31,22.31,0,0,0-2.66.08C140,4,141.2,4,142.05,3.9Z" transform="translate(0)"/><polygon class="cls-2" points="134.43 3.34 135.41 3.45 137.74 3.49 134.43 3.34"/><path class="cls-2" d="M181.74,4.05l3.61-.14c.36-.17-.62-.27-2-.21C182.52,3.82,181.19,3.88,181.74,4.05Z" transform="translate(0)"/><path class="cls-2" d="M170.84,2.66a5.15,5.15,0,0,1,1.59.38l.11-.62Z" transform="translate(0)"/><path class="cls-2" d="M181.35,2.53c.36-.17,5.24-.48.67-.45C181.65,2.25,178,2.38,181.35,2.53Z" transform="translate(0)"/><polygon class="cls-2" points="235.66 3.43 234.75 3.43 234.88 4.45 235.66 3.43"/><path class="cls-2" d="M283.54,1.09c-4.27-.26-1,.62-4.87.31-1,.24,3.15.26,2.12.46C283.37,1.61,284.73,1.76,283.54,1.09Z" transform="translate(0)"/><path class="cls-2" d="M280.79,1.86,279.48,2A13,13,0,0,0,280.79,1.86Z" transform="translate(0)"/><polygon class="cls-2" points="7.57 5.68 4.82 5.89 6.6 5.55 7.57 5.68"/><path class="cls-2" d="M2.3,4.91l-.65.65L.83,5.27.41,5.12.21,5,.1,5l0,0H0V5H.26l.3,0h.65A4.07,4.07,0,0,0,2.3,4.91Z" transform="translate(0)"/><path class="cls-2" d="M377.64.48l.21.16a7.87,7.87,0,0,1-2.36.2Z" transform="translate(0)"/><polygon class="cls-2" points="340.38 0.89 341.02 0.88 339.82 1.47 340.38 0.89"/><path class="cls-2" d="M309.1.08c1.28,0,2.78.11,4.06.09C310.38.06,308.76.81,309.1.08Z" transform="translate(0)"/></g></g></svg>